HIERARCHY
ROOT WRIST
{
	OFFSET 0.000000 0.000000 0.000000
	CHANNELS 6 Xposition Yposition Zposition Yrotation Xrotation Zrotation
	JOINT THUMB_CMC_FE
	{
		OFFSET 0.225143 0.117753 -0.062308
		CHANNELS 3 Yrotation Xrotation Zrotation
		JOINT THUMB_CMC_AA
		{
			OFFSET 0.212856 -0.150507 0.098851
			CHANNELS 3 Yrotation Xrotation Zrotation
			JOINT THUMB_MCP_FE
			{
				OFFSET -0.322503 -0.167445 -0.031436
				CHANNELS 3 Yrotation Xrotation Zrotation
				JOINT THUMB_IP_FE
				{
					OFFSET 0.295233 -0.236404 0.025845
					CHANNELS 3 Yrotation Xrotation Zrotation
					End Site
					{
						OFFSET 0.000000 0.000000 0.000000
					}
				}
			}
		}
	}
	JOINT INDEX_MCP
	{
		OFFSET 1.076913 0.264198 -0.014768
		CHANNELS 3 Yrotation Xrotation Zrotation
		JOINT INDEX_PIP_FE
		{
			OFFSET 0.425053 0.013289 0.013619
			CHANNELS 3 Yrotation Xrotation Zrotation
			JOINT INDEX_DIP_FE
			{
				OFFSET 0.271505 -0.024898 0.000550
				CHANNELS 3 Yrotation Xrotation Zrotation
				End Site
				{
					OFFSET 0.000000 0.000000 0.000000
				}
			}
		}
	}
	JOINT MIDDLE_MCP
	{
		OFFSET 1.072991 0.019362 0.038780
		CHANNELS 3 Yrotation Xrotation Zrotation
		JOINT MIDDLE_PIP_FE
		{
			OFFSET 0.480704 0.002618 0.028696
			CHANNELS 3 Yrotation Xrotation Zrotation
			JOINT MIDDLE_DIP_FE
			{
				OFFSET 0.307486 -0.031129 -0.000643
				CHANNELS 3 Yrotation Xrotation Zrotation
				End Site
				{
					OFFSET 0.000000 0.000000 0.000000
				}
			}
		}
	}
	JOINT RING_MCP
	{
		OFFSET 0.994992 -0.195930 -0.005938
		CHANNELS 3 Yrotation Xrotation Zrotation
		JOINT RING_PIP_FE
		{
			OFFSET 0.436995 0.003792 0.019994
			CHANNELS 3 Yrotation Xrotation Zrotation
			JOINT RING_DIP_FE
			{
				OFFSET 0.295558 -0.038341 -0.006642
				CHANNELS 3 Yrotation Xrotation Zrotation
				End Site
				{
					OFFSET 0.000000 0.000000 0.000000
				}
			}
		}
	}
	JOINT PINKY_MCP
	{
		OFFSET 0.873858 -0.393246 -0.086282
		CHANNELS 3 Yrotation Xrotation Zrotation
		JOINT PINKY_PIP_FE
		{
			OFFSET 0.343972 -0.016492 0.013445
			CHANNELS 3 Yrotation Xrotation Zrotation
			JOINT PINKY_DIP_FE
			{
				OFFSET 0.224713 -0.036309 -0.010265
				CHANNELS 3 Yrotation Xrotation Zrotation
				End Site
				{
					OFFSET 0.000000 0.000000 0.000000
				}
			}
		}
	}
}
MOTION
Frames: 8
Frame Time: 0.008333334
4.092620 3.086338 6.920032 78.565610 -64.609130 11.093880 61.461190 4.834470 73.361110 119.352900 -30.976930 9.850905 -112.863900 -65.843230 -59.273190 4.562096 -8.459839 -22.066560 -144.490600 2.681720 177.422200 -41.978240 -86.125550 39.948130 -2.052612 1.704995 -37.783290 -177.700800 -0.992798 -169.836800 -39.240780 -88.411440 35.889650 -6.002502 4.395442 0.341486 161.553300 -0.769104 -163.643900 -31.479550 -85.617740 -4.996307 0.199313 0.562914 4.968520 151.383700 -2.587952 -156.583300 -48.977480 -83.530610 22.756050 5.539797 0.809164 -12.593380 
4.092609 3.086688 6.920993 78.602780 -64.612460 11.003020 61.461190 4.834478 73.339230 119.352900 -30.976930 9.850179 -112.864000 -65.843230 -59.281490 4.562094 -8.459839 -22.066590 -144.491200 2.681744 177.421500 -41.978120 -86.125670 39.948310 -2.052612 1.704996 -37.783290 -177.712300 -0.991669 -169.850600 -39.240360 -88.411440 35.818320 -6.002533 4.395446 0.355618 161.553300 -0.769104 -163.559700 -31.479280 -85.617800 -5.025604 0.199315 0.562925 4.968523 151.383700 -2.587952 -156.613300 -48.977510 -83.530580 22.776980 5.539809 0.809194 -12.378970 
4.092328 3.087014 6.922152 78.623520 -64.605290 10.926600 61.461180 4.834473 73.313470 119.352900 -30.976930 9.856261 -112.863900 -65.843230 -59.288450 4.562094 -8.459808 -22.066590 -144.492300 2.681783 177.420900 -41.978180 -86.125550 39.948550 -2.052643 1.704992 -37.783290 -177.693400 -0.993530 -169.786800 -39.240600 -88.411440 35.873680 -6.002533 4.395434 0.000468 161.553300 -0.769104 -163.559200 -31.479340 -85.617800 -4.937164 0.199303 0.562934 4.968521 151.383700 -2.587952 -156.582900 -48.977540 -83.530580 22.782550 5.539815 0.809170 -12.092220 
4.092326 3.086810 6.922950 78.567390 -64.598450 10.959170 61.461180 4.834473 73.323250 119.352900 -30.976930 9.852215 -112.863900 -65.843260 -59.287290 4.562076 -8.459839 -22.066560 -144.493300 2.681829 177.421200 -41.977970 -86.125610 39.948560 -2.052643 1.705008 -37.783290 -177.567300 -1.005890 -169.709300 -39.241030 -88.411560 36.007500 -6.002533 4.395458 0.012973 161.553300 -0.769104 -163.503700 -31.479490 -85.617860 -5.053772 0.199316 0.562918 4.968522 151.383700 -2.587952 -156.514200 -48.977480 -83.530580 22.776510 5.539792 0.809166 -11.954930 
4.092351 3.086679 6.923764 78.533010 -64.619600 10.978380 61.461190 4.834476 73.326090 119.352900 -30.976930 9.861920 -112.864000 -65.843230 -59.279720 4.562098 -8.459839 -22.066590 -144.495500 2.681907 177.421800 -41.978180 -86.125610 39.949180 -2.052643 1.704988 -37.783290 -177.554100 -1.007172 -169.726500 -39.240330 -88.411320 35.962010 -6.002533 4.395446 0.411972 161.553300 -0.769104 -163.474600 -31.479550 -85.617800 -5.264618 0.199320 0.562930 4.968520 151.383700 -2.587952 -156.547900 -48.977450 -83.530640 22.593770 5.539803 0.809169 -11.452940 
4.092635 3.086625 6.924734 78.536780 -64.658420 10.993020 61.461200 4.834472 73.288930 119.352900 -30.976900 9.881639 -112.863900 -65.843200 -59.288790 4.562086 -8.459839 -22.066560 -144.497400 2.681972 177.422400 -41.978300 -86.125610 39.949890 -2.052643 1.705009 -37.783290 -177.585300 -1.004150 -169.698300 -39.240540 -88.411320 35.845500 -6.002533 4.395459 0.501312 161.553300 -0.769104 -163.498500 -31.479220 -85.617830 -5.355652 0.199297 0.562925 4.968523 151.383700 -2.587952 -156.568400 -48.977480 -83.530610 22.317270 5.539794 0.809162 -11.129180 
4.092743 3.086213 6.925268 78.523670 -64.651860 11.033370 61.461190 4.834478 73.286070 119.352900 -30.976930 9.869060 -112.863900 -65.843200 -59.281070 4.562093 -8.459839 -22.066560 -144.498200 2.681999 177.423100 -41.978520 -86.125550 39.950330 -2.052643 1.705012 -37.783290 -177.667400 -0.996094 -169.718700 -39.240570 -88.411320 35.716740 -6.002533 4.395460 0.678681 161.553300 -0.769104 -163.547200 -31.479370 -85.617740 -5.368835 0.199323 0.562920 4.968516 151.383700 -2.587952 -156.673000 -48.977390 -83.530580 22.290930 5.539800 0.809175 -11.310910 
4.092656 3.085884 6.926007 78.461280 -64.704740 11.114180 61.461200 4.834456 73.266750 119.352900 -30.976960 9.882210 -112.863900 -65.843260 -59.288790 4.562085 -8.459839 -22.066590 -144.499200 2.682052 177.423500 -41.978120 -86.125670 39.950130 -2.052612 1.704999 -37.783290 -177.630300 -0.999725 -169.769900 -39.240690 -88.411560 35.718260 -6.002502 4.395442 0.393402 161.553300 -0.769104 -163.570900 -31.479550 -85.617680 -5.596375 0.199296 0.562922 4.968521 151.383700 -2.587952 -156.661100 -48.977510 -83.530640 21.998670 5.539806 0.809192 -11.523320 
